<svg xmlns="http://www.w3.org/2000/svg" width="136" height="38" viewBox="0 0 136 38" fill="none"><path d="M66.2358 2.82739V16.732H62.9495V12.7651L63.1629 7.81669L59.8126 13.0718H57.2946L53.8802 7.7349L54.1576 12.7651V16.732H50.8713V2.82739H54.0296L58.5536 9.82059L63.0776 2.82739H66.2358Z" fill="#133B88"></path><path d="M77.6919 14.4623V16.732H68.0891V2.82739H77.2651V5.09711H71.4607V8.2461H76.4115V10.5158H71.4607V14.4623H77.6919Z" fill="#133B88"></path><path d="M85.4923 2.82739C87.0856 2.82739 88.4513 3.1273 89.5895 3.7271C90.7276 4.32691 91.5812 5.15164 92.1502 6.2013C92.7335 7.25096 93.0251 8.43694 93.0251 9.75925C93.0251 11.1088 92.7335 12.3152 92.1502 13.3785C91.5812 14.4282 90.7276 15.2529 89.5895 15.8527C88.4656 16.4389 87.0998 16.732 85.4923 16.732H79.7092V2.82739H85.4923ZM85.4923 14.4214C86.8011 14.4214 87.8183 14.0056 88.5438 13.1741C89.2694 12.3289 89.6321 11.1974 89.6321 9.77969C89.6321 8.3756 89.2694 7.25096 88.5438 6.40578C87.8183 5.5606 86.8011 5.13801 85.4923 5.13801H83.0809V14.4214H85.4923Z" fill="#133B88"></path><path d="M58.7153 34.8274C56.97 34.8274 55.4917 34.4892 54.2801 33.813C53.083 33.1227 52.1815 32.2141 51.5757 31.0871C50.9844 29.946 50.6887 28.6992 50.6887 27.3468C50.6887 26.0084 50.9988 24.7757 51.619 23.6487C52.2536 22.5217 53.1912 21.6201 54.4316 20.9439C55.672 20.2677 57.172 19.9296 58.9316 19.9296C59.8114 19.9296 60.6408 20.0352 61.4196 20.2465C62.1985 20.4438 62.8764 20.7255 63.4533 21.0918L62.6528 23.4163C61.5711 22.7119 60.3307 22.3597 58.9316 22.3597C57.922 22.3597 57.0494 22.5851 56.3138 23.0359C55.5926 23.4726 55.0445 24.0714 54.6695 24.8321C54.2945 25.5788 54.107 26.424 54.107 27.3679C54.107 28.8471 54.5037 30.0587 55.297 31.0025C56.1047 31.9323 57.2441 32.3972 58.7153 32.3972C59.4941 32.3972 60.2297 32.2916 60.922 32.0802C61.6288 31.8548 62.249 31.5801 62.7826 31.2561L63.5182 33.5172C62.898 33.8976 62.1696 34.2145 61.3331 34.4681C60.4965 34.7076 59.6239 34.8274 58.7153 34.8274Z" fill="#126FE6"></path><path d="M76.2519 32.207V34.5526H66.5162V20.1831H75.8192V22.5288H69.9345V25.783H74.9538V28.1286H69.9345V32.207H76.2519Z" fill="#126FE6"></path><path d="M92.774 20.1831V34.5526L89.7235 34.5738L82.5839 24.98L82.8436 29.7558V34.5526H79.4253V20.1831H82.4974L89.6153 29.7135L89.3557 24.8532V20.1831H92.774Z" fill="#126FE6"></path><path d="M107.261 22.571H102.999V34.5526H99.5807V22.571H95.3619V20.1831H107.261V22.571Z" fill="#126FE6"></path><path d="M119.543 32.207V34.5526H109.807V20.1831H119.11V22.5288H113.225V25.783H118.245V28.1286H113.225V32.207H119.543Z" fill="#126FE6"></path><path d="M128.384 29.0162H126.134V34.5526H122.716V20.1831H128.363C130.368 20.1831 131.839 20.5353 132.776 21.2397C133.714 21.93 134.183 22.9866 134.183 24.4095C134.183 26.4099 133.36 27.7201 131.716 28.3399L136 34.5526H132.062L128.384 29.0162ZM126.134 26.6706H128.363C129.199 26.6706 129.805 26.5015 130.18 26.1634C130.57 25.8253 130.764 25.304 130.764 24.5997C130.764 23.8953 130.57 23.374 130.18 23.0359C129.805 22.6978 129.199 22.5288 128.363 22.5288H126.134V26.6706Z" fill="#126FE6"></path><rect x="11.5645" width="16.0127" height="26.773" fill="#133B88"></rect><rect x="39.1428" y="11.2271" width="15.5448" height="27.5774" transform="rotate(90 39.1428 11.2271)" fill="#133B88"></rect><rect opacity="0.7" x="27.5784" y="11.2271" width="15.5448" height="27.5774" transform="rotate(90 27.5784 11.2271)" fill="#126FE6"></rect><rect opacity="0.7" x="11.5645" y="11.2271" width="16.0127" height="26.773" fill="#126FE6"></rect><path d="M0 22.6476H5.59173L8.78701 17.8351L14.6783 28.7726L17.7919 7.77258L22.2399 21.7726L26.243 14.3351L29.8014 22.2101H39.1421" stroke="white"></path></svg>